<?xml version="1.0" encoding="utf-8"?>
<svg xmlns="http://www.w3.org/2000/svg" viewBox="82.3594 1.097 37.6337 37.9934" width="37.6337px" height="37.9934px">
  <path d="M94.8362 26.3254C92.6903 26.3233 90.5439 26.3495 88.3987 26.3096C86.8786 26.2814 85.527 25.743 84.4387 24.6607C83.965 24.1895 83.4859 23.6904 83.1517 23.1204C82.6993 22.3486 82.392 21.4907 82.368 20.5724C82.3435 19.6367 82.3504 18.7105 82.6775 17.8017C83.3197 16.0168 84.5114 14.7952 86.2475 14.0538C87.0021 13.7316 87.7734 13.5993 88.5809 13.5998C90.1671 13.6008 91.7535 13.5834 93.3393 13.606C94.3888 13.6209 95.3012 13.9955 96.0477 14.7618C97.5705 16.3248 99.1045 17.8769 100.636 19.4317C100.992 19.7937 101.172 19.7934 101.526 19.4405C102.272 18.697 103.011 17.9472 103.762 17.209C104.69 16.2957 105.61 15.3721 106.568 14.4904C107.179 13.9282 107.925 13.6055 108.774 13.6022C110.493 13.5953 112.213 13.5756 113.932 13.6075C115.46 13.6357 116.753 14.2579 117.907 15.2489C118.949 16.1442 119.554 17.287 119.839 18.5837C120.133 19.9171 120.005 21.2486 119.466 22.523C118.927 23.7981 118.064 24.7836 116.859 25.4708C115.985 25.9687 115.057 26.3029 114.048 26.3127C111.996 26.3328 109.943 26.3196 107.89 26.3201C107.745 26.3201 107.6 26.3201 107.405 26.3201C107.405 26.4826 107.405 26.6236 107.405 26.7647C107.405 28.7907 107.399 30.8167 107.407 32.8427C107.412 34.2198 106.91 35.3979 106.143 36.5232C105.14 37.9934 103.698 38.7321 102.038 39.0061C100.67 39.2318 99.302 39.0133 98.0916 38.239C97.6741 37.9718 97.2549 37.6908 96.8942 37.3542C95.7599 36.2958 94.9831 34.7201 94.9245 33.0801C94.8445 30.8401 94.8498 28.9077 94.8445 26.7201C94.8442 26.5847 94.8656 26.4607 94.8362 26.3254Z" fill="#0583F2"/>
  <path d="M106.395 4.1436C106.854 4.92469 107.06 5.77483 107.145 6.66073C107.23 7.55814 107.109 8.399 106.82 9.23671C106.631 9.78531 106.251 10.582 105.89 11.0926C105.296 11.9343 104.786 12.5567 104.16 13.2473C103.451 14.0287 102.871 14.7735 101.888 15.6201C101.404 16.089 100.699 16.0514 100.249 15.5764C98.928 14.3484 97.6756 13.0345 96.589 11.7651C95.6964 10.7224 95.1026 9.56668 94.9561 8.22354C94.7744 6.55743 95.1062 4.97595 96.166 3.56341C97.2584 2.10753 98.7005 1.31171 100.442 1.13259C102.071 0.965006 103.604 1.3864 104.907 2.45202C105.491 2.93014 106.015 3.4132 106.395 4.1436ZM99.1061 4.62508C98.8832 4.85133 98.6354 5.05823 98.4414 5.30706C97.4035 6.63822 97.5372 8.44745 98.7524 9.71704C99.9681 10.9871 101.993 10.9987 103.237 9.83538C104.034 9.09047 104.357 8.19037 104.323 7.11138C104.285 5.90443 103.533 4.86298 102.537 4.3567C101.366 3.76144 100.236 3.85339 99.1061 4.62508Z" fill="#F89D1C"/>
</svg>